<?xml version="1.0" encoding="UTF-8" standalone="no"?>
<svg
   xmlns:dc="http://purl.org/dc/elements/1.1/"
   xmlns:cc="http://creativecommons.org/ns#"
   xmlns:rdf="http://www.w3.org/1999/02/22-rdf-syntax-ns#"
   xmlns:svg="http://www.w3.org/2000/svg"
   xmlns="http://www.w3.org/2000/svg"
   xmlns:sodipodi="http://sodipodi.sourceforge.net/DTD/sodipodi-0.dtd"
   xmlns:inkscape="http://www.inkscape.org/namespaces/inkscape"
   id="a"
   viewBox="0 0 2447.87 528.86999"
   version="1.1"
   width="2447.8701"
   height="528.87"
   inkscape:version="0.92.5 (2060ec1f9f, 2020-04-08)"
   sodipodi:docname="isis_logo_schrift.svg">
  <metadata
     id="metadata125">
    <rdf:RDF>
      <cc:Work
         rdf:about="">
        <dc:format>image/svg+xml</dc:format>
        <dc:type
           rdf:resource="http://purl.org/dc/dcmitype/StillImage" />
      </cc:Work>
    </rdf:RDF>
  </metadata>
  <sodipodi:namedview
     pagecolor="#ffffff"
     bordercolor="#666666"
     borderopacity="1"
     objecttolerance="10"
     gridtolerance="10"
     guidetolerance="10"
     inkscape:pageopacity="0"
     inkscape:pageshadow="2"
     inkscape:window-width="1920"
     inkscape:window-height="972"
     id="namedview123"
     showgrid="false"
     inkscape:zoom="0.25"
     inkscape:cx="-6.4726283"
     inkscape:cy="-25.617384"
     inkscape:window-x="0"
     inkscape:window-y="27"
     inkscape:window-maximized="1"
     inkscape:current-layer="a" />
  <defs
     id="defs10">
    <style
       id="style2">.f{fill:none;}.g{fill:#fff;}.h{fill:#c61622;}.i{fill:#434343;}.j{clip-path:url(#e);}.k{clip-path:url(#d);}</style>
    <clipPath
       id="d">
      <rect
         class="f"
         x="506.01999"
         y="373.87"
         width="132.67"
         height="58.150002"
         id="rect4"
         style="fill:none" />
    </clipPath>
    <clipPath
       id="e">
      <rect
         class="f"
         x="506.44"
         y="373.82001"
         width="132.67"
         height="58.150002"
         id="rect7"
         style="fill:none" />
    </clipPath>
  </defs>
  <path
     class="h"
     d="M 418.54,528.46 H 110.18 C 49.6,528.46 0,478.86 0,418.28 V 110.18 C 0,49.6 49.6,0 110.18,0 h 308.36 c 60.58,0 110.18,49.6 110.18,110.18 v 308.05 c 0,60.64 -49.55,110.23 -110.18,110.23 z"
     id="path14"
     inkscape:connector-curvature="0"
     style="fill:#c61622" />
  <polyline
     id="b"
     class="h"
     points="314.06 152.27 681.45 152.27 681.45 680.68 152.73 680.68 152.73 313.86"
     style="fill:#c61622"
     transform="translate(-152.57,-151.81)" />
  <path
     id="c"
     class="g"
     d="M 309.92,168.74 H 269.81 V 279.91 H 229.7 v 125.31 h -60.12 v 38.14 h 140.34 z"
     inkscape:connector-curvature="0"
     style="fill:#ffffff" />
  <ellipse
     class="g"
     cx="-4.1966891"
     cy="560.25928"
     rx="31.719999"
     ry="49.18"
     transform="rotate(-45.51)"
     id="ellipse18"
     style="fill:#ffffff" />
  <g
     class="k"
     clip-path="url(#d)"
     id="g22"
     transform="translate(-152.57,-151.81)">
    <ellipse
       class="g"
       cx="550.79999"
       cy="422.38"
       rx="44.830002"
       ry="43.529999"
       id="ellipse20"
       style="fill:#ffffff" />
  </g>
  <g
     class="j"
     clip-path="url(#e)"
     id="g26"
     transform="translate(-152.57,-151.81)">
    <ellipse
       class="g"
       cx="551.21002"
       cy="422.32999"
       rx="44.830002"
       ry="43.529999"
       id="ellipse24"
       style="fill:#ffffff" />
  </g>
  <rect
     class="h"
     x="353.13998"
     y="280.67999"
     width="132.67"
     height="40.419998"
     id="rect28"
     style="fill:#c61622" />
  <path
     class="i"
     d="m 1186.8229,180.71226 h 14.3988 v 99.53298 h -14.3988 z"
     id="path30"
     inkscape:connector-curvature="0"
     style="fill:#434343;stroke-width:0.93195665" />
  <path
     class="i"
     d="m 1285.9367,236.35007 v 43.89517 h -14.1191 v -43.0564 c 0,-6.1509 -1.1837,-10.62432 -3.5602,-13.42017 -2.3765,-2.79587 -6.179,-4.19382 -11.398,-4.19382 -5.9643,0 -10.7452,1.86392 -14.3333,5.59176 -3.588,3.72781 -5.3773,8.71378 -5.3773,14.95792 v 40.12071 h -13.9796 v -50.60525 c 0,-7.36245 -0.3726,-13.97935 -1.1182,-19.85068 h 13.1404 l 1.2584,12.16205 c 2.2367,-4.47341 5.4705,-7.903 9.7109,-10.27949 4.2405,-2.3765 9.0587,-3.5694 14.464,-3.5694 16.8683,0 25.3028,9.41276 25.3028,28.23828 h 0.011 z"
     id="path32"
     inkscape:connector-curvature="0"
     style="fill:#434343;stroke-width:0.93195665" />
  <path
     class="i"
     d="m 1324.24,201.96087 v 7.82844 h 16.4957 V 220.6932 H 1324.24 v 59.55204 h -14.1191 V 220.6932 h -13.5602 v -10.90389 h 13.5602 v -8.94679 c 0,-7.82843 1.9756,-13.79296 5.9458,-17.89356 3.9609,-4.10062 9.5248,-6.15091 16.7007,-6.15091 3.7279,0 7.1295,0.46597 10.205,1.39793 v 11.60287 c -2.5163,-0.74557 -4.8928,-1.11836 -7.1295,-1.11836 -7.7352,0 -11.6029,4.4268 -11.6029,13.28038 z"
     id="path34"
     inkscape:connector-curvature="0"
     style="fill:#434343;stroke-width:0.93195665" />
  <path
     class="i"
     d="m 1366.5975,276.75042 c -5.2189,-2.98229 -9.2543,-7.22267 -12.097,-12.72122 -2.8423,-5.49853 -4.2589,-11.92906 -4.2589,-19.29152 0,-7.36245 1.4166,-13.81157 4.2589,-19.36606 2.8427,-5.54514 6.8688,-9.80416 12.097,-12.78641 5.2189,-2.98228 11.2767,-4.47341 18.1732,-4.47341 6.8964,0 12.8142,1.49113 18.0333,4.47341 5.219,2.98225 9.2451,7.2506 12.0968,12.78641 2.8424,5.54516 4.259,12.00361 4.259,19.36606 0,7.36246 -1.426,13.79299 -4.259,19.29152 -2.8426,5.49855 -6.8778,9.73893 -12.0968,12.72122 -5.2191,2.98224 -11.23,4.47339 -18.0333,4.47339 -6.8034,0 -12.9543,-1.49115 -18.1732,-4.47339 z m 32.9912,-13.14061 c 3.4484,-4.28701 5.1723,-10.5777 5.1723,-18.87213 0,-8.2944 -1.752,-14.35213 -5.2376,-18.73231 -3.4948,-4.38021 -8.4155,-6.57031 -14.7527,-6.57031 -6.3375,0 -11.4165,2.1901 -14.9581,6.57031 -3.5414,4.38018 -5.3119,10.6243 -5.3119,18.73231 0,8.10802 1.752,14.58512 5.2375,18.87213 3.4948,4.28702 8.462,6.4305 14.8927,6.4305 6.4306,0 11.5094,-2.14348 14.9578,-6.4305 z"
     id="path36"
     inkscape:connector-curvature="0"
     style="fill:#434343;stroke-width:0.93195665" />
  <path
     class="i"
     d="m 1477.4537,209.09035 -0.2796,12.86101 c -2.5161,-0.93196 -5.2656,-1.39794 -8.2478,-1.39794 -6.4304,0 -11.2488,1.93846 -14.464,5.79678 -3.2152,3.86761 -4.818,8.74173 -4.818,14.60375 v 39.28198 h -13.9794 v -50.60527 c 0,-7.36244 -0.3728,-13.97934 -1.1184,-19.85067 h 13.1403 l 1.2585,12.72121 c 1.8637,-4.65979 4.7529,-8.21986 8.6669,-10.68954 3.9145,-2.46968 8.2947,-3.70919 13.1407,-3.70919 2.1435,0 4.3804,0.32618 6.7102,0.97856 v 0 z"
     id="path38"
     inkscape:connector-curvature="0"
     style="fill:#434343;stroke-width:0.93195665" />
  <path
     class="i"
     d="m 1592.0844,236.35007 v 43.89517 h -14.1193 v -43.19618 c 0,-6.05773 -1.0437,-10.48454 -3.15,-13.28039 -2.1059,-2.79587 -5.4797,-4.19382 -10.1394,-4.19382 -5.4056,0 -9.6738,1.86392 -12.7959,5.59176 -3.1221,3.72781 -4.6785,8.80698 -4.6785,15.23749 v 39.84114 h -14.1191 v -43.19618 c 0,-6.05773 -1.0439,-10.48454 -3.15,-13.28039 -2.1061,-2.79587 -5.4799,-4.19382 -10.1396,-4.19382 -5.4052,0 -9.6924,1.86392 -12.861,5.59176 -3.1689,3.72781 -4.7529,8.80698 -4.7529,15.23749 v 39.84114 h -13.9794 v -50.60525 c 0,-7.36245 -0.3729,-13.97935 -1.1185,-19.85068 h 13.1407 l 1.2581,11.74264 c 2.0503,-4.287 4.986,-7.59544 8.8071,-9.92532 3.821,-2.32989 8.2943,-3.49483 13.4199,-3.49483 10.9041,0 18.0336,4.51999 21.3886,13.55996 2.1436,-4.19381 5.2841,-7.50227 9.4313,-9.92534 4.1471,-2.42308 8.8257,-3.63462 14.0539,-3.63462 15.6569,0 23.4854,9.41276 23.4854,28.23827 z"
     id="path40"
     inkscape:connector-curvature="0"
     style="fill:#434343;stroke-width:0.93195665" />
  <path
     class="i"
     d="m 1676.7994,209.78931 v 70.45593 h -13.9795 V 268.223 c -2.0505,4.19382 -5.1071,7.40907 -9.161,9.64575 -4.0541,2.2367 -8.7886,3.35506 -14.1844,3.35506 -6.2441,0 -11.724,-1.49115 -16.4211,-4.47339 -4.7064,-2.98229 -8.3691,-7.19472 -10.9786,-12.65597 -2.6095,-5.45195 -3.9141,-11.80789 -3.9141,-19.07717 0,-7.26927 1.3232,-13.69977 3.9795,-19.29152 2.656,-5.59173 6.3653,-9.92533 11.109,-13.00078 4.7528,-3.07546 10.1581,-4.61318 16.216,-4.61318 5.4051,0 10.1116,1.14629 14.1192,3.42958 4.0072,2.28329 7.0828,5.5172 9.2262,9.71099 v -11.46306 z m -19.217,53.60615 c 3.4949,-4.42679 5.2375,-10.64293 5.2375,-18.65778 0,-8.01481 -1.7519,-14.35213 -5.2375,-18.73231 -3.4949,-4.38021 -8.4623,-6.57031 -14.8928,-6.57031 -6.4305,0 -11.3045,2.26468 -14.8926,6.78465 -3.588,4.51998 -5.3775,10.79205 -5.3775,18.79757 0,8.0055 1.7895,14.07254 5.3775,18.45274 3.5881,4.3802 8.602,6.57029 15.0232,6.57029 6.4211,0 11.258,-2.20872 14.7529,-6.63553 h 0.01 z"
     id="path42"
     inkscape:connector-curvature="0"
     style="fill:#434343;stroke-width:0.93195665" />
  <path
     class="i"
     d="m 1715.8017,220.6932 v 35.36777 c 0,4.84617 1.0437,8.27577 3.15,10.27948 2.0969,2.00371 5.0048,3.0009 8.7418,3.0009 2.4231,0 4.8928,-0.37278 7.4091,-1.11835 v 11.46306 c -3.0754,1.02516 -6.5705,1.53775 -10.4846,1.53775 -7.2694,0 -12.9076,-2.05032 -16.9149,-6.15091 -4.0076,-4.10062 -6.0114,-10.06514 -6.0114,-17.89358 V 220.6932 h -13.6995 v -10.90389 h 13.6995 v -17.61399 l 14.1191,-4.89277 v 22.50676 h 19.4315 v 10.90389 z"
     id="path44"
     inkscape:connector-curvature="0"
     style="fill:#434343;stroke-width:0.93195665" />
  <path
     class="i"
     d="m 1763.3222,179.03476 v 14.81808 h -16.3558 v -14.81808 z m -15.0977,30.75455 h 13.9792 v 70.45593 h -13.9792 z"
     id="path46"
     inkscape:connector-curvature="0"
     style="fill:#434343;stroke-width:0.93195665" />
  <path
     class="i"
     d="m 1795.0554,276.75042 c -5.219,-2.98229 -9.2545,-7.22267 -12.0969,-12.72122 -2.8425,-5.49853 -4.2591,-11.92906 -4.2591,-19.29152 0,-7.36245 1.4166,-13.81157 4.2591,-19.36606 2.8424,-5.54514 6.8684,-9.80416 12.0969,-12.78641 5.219,-2.98228 11.2766,-4.47341 18.1729,-4.47341 6.8967,0 12.8146,1.49113 18.0335,4.47341 5.2192,2.98225 9.245,7.2506 12.0968,12.78641 2.8425,5.54516 4.259,12.00361 4.259,19.36606 0,7.36246 -1.4258,13.79299 -4.259,19.29152 -2.8425,5.49855 -6.8776,9.73893 -12.0968,12.72122 -5.2189,2.98224 -11.2301,4.47339 -18.0335,4.47339 -6.8032,0 -12.9539,-1.49115 -18.1729,-4.47339 z m 32.9912,-13.14061 c 3.4484,-4.28701 5.1723,-10.5777 5.1723,-18.87213 0,-8.2944 -1.7522,-14.35213 -5.2375,-18.73231 -3.4949,-4.38021 -8.4156,-6.57031 -14.7531,-6.57031 -6.3372,0 -11.4164,2.1901 -14.9576,6.57031 -3.5416,4.38018 -5.3121,10.6243 -5.3121,18.73231 0,8.10802 1.752,14.58512 5.2374,18.87213 3.4949,4.28702 8.4622,6.4305 14.8927,6.4305 6.4304,0 11.5095,-2.14348 14.9579,-6.4305 z"
     id="path48"
     inkscape:connector-curvature="0"
     style="fill:#434343;stroke-width:0.93195665" />
  <path
     class="i"
     d="m 1926.8806,236.35007 v 43.89517 h -14.1194 v -43.0564 c 0,-6.1509 -1.1832,-10.62432 -3.5597,-13.42017 -2.3767,-2.79587 -6.1789,-4.19382 -11.3979,-4.19382 -5.9644,0 -10.7455,1.86392 -14.3337,5.59176 -3.5877,3.72781 -5.3772,8.71378 -5.3772,14.95792 v 40.12071 h -13.9794 v -50.60525 c 0,-7.36245 -0.3727,-13.97935 -1.1185,-19.85068 h 13.1406 l 1.2583,12.16205 c 2.2368,-4.47341 5.4706,-7.903 9.711,-10.27949 4.2404,-2.3765 9.0587,-3.5694 14.4639,-3.5694 16.8685,0 25.3026,9.41276 25.3026,28.23828 v 0 z"
     id="path50"
     inkscape:connector-curvature="0"
     style="fill:#434343;stroke-width:0.93195665" />
  <path
     class="i"
     d="m 1996.9824,278.28812 c -6.3839,-2.05029 -11.9103,-5.12575 -16.5609,-9.22637 l 5.1726,-10.62429 c 4.846,3.91421 9.8783,6.75668 15.0977,8.52741 5.2188,1.77071 11.09,2.65605 17.6138,2.65605 7.4557,0 13.2336,-1.39792 17.3342,-4.19378 4.1008,-2.79587 6.1509,-6.75667 6.1509,-11.88246 0,-4.28701 -1.9102,-7.5209 -5.7313,-9.71098 -3.8211,-2.19009 -9.879,-4.21245 -18.1731,-6.07636 -7.9218,-1.67753 -14.3989,-3.61601 -19.4316,-5.80609 -5.0323,-2.19011 -8.9932,-5.12578 -11.8823,-8.807 -2.889,-3.68122 -4.3334,-8.40625 -4.3334,-14.18438 0,-5.77814 1.5375,-10.87594 4.613,-15.30273 3.0756,-4.42676 7.4277,-7.87502 13.0754,-10.34472 5.6383,-2.46966 12.1341,-3.70919 19.4965,-3.70919 7.3625,0 13.5322,1.07177 19.6457,3.21525 6.1042,2.14351 11.2021,5.17236 15.3027,9.08658 l -5.1724,10.6243 c -4.5667,-3.82101 -9.273,-6.63553 -14.1191,-8.45284 -4.8463,-1.81731 -10.0186,-2.73065 -15.5171,-2.73065 -7.176,0 -12.8145,1.5191 -16.9152,4.54796 -4.1005,3.02886 -6.1507,7.15741 -6.1507,12.37639 0,4.47339 1.7893,7.87504 5.3775,10.20493 3.5878,2.32987 9.338,4.42678 17.269,6.29071 8.2943,1.86391 15.0046,3.82104 20.1302,5.87133 5.1257,2.05029 9.2265,4.84617 12.3019,8.38761 3.0755,3.54143 4.6132,8.10802 4.6132,13.69975 0,5.59176 -1.5377,10.81072 -4.6132,15.09771 -3.0754,4.287 -7.4837,7.61408 -13.2058,9.99057 -5.7316,2.3765 -12.4694,3.56941 -20.2048,3.56941 -7.7353,0 -14.7996,-1.02517 -21.1834,-3.07546 z"
     id="path52"
     inkscape:connector-curvature="0"
     style="fill:#434343;stroke-width:0.93195665" />
  <path
     class="i"
     d="m 2133.0145,209.78931 -32.8514,76.18748 c -3.6347,8.29441 -8.1732,14.37077 -13.6252,18.23838 -5.452,3.86763 -12.1902,6.44914 -20.1958,7.7632 l -3.0752,-10.90389 c 6.6168,-1.49113 11.6214,-3.42027 15.0233,-5.79678 3.4014,-2.3765 6.1227,-5.94588 8.1729,-10.68954 l 2.5163,-5.87132 -29.6361,-68.9182 h 14.9579 l 22.0874,54.51947 22.5067,-54.51947 h 14.1192 z"
     id="path54"
     inkscape:connector-curvature="0"
     style="fill:#434343;stroke-width:0.93195665" />
  <path
     class="i"
     d="m 2141.1841,272.277 4.1938,-10.20491 c 7.3622,5.59173 15.7966,8.3876 25.3026,8.3876 4.8461,0 8.5274,-0.81081 11.0437,-2.44172 2.5165,-1.63091 3.7744,-3.93285 3.7744,-6.91512 0,-2.51627 -0.8666,-4.49201 -2.5816,-5.94587 -1.7242,-1.44454 -4.6411,-2.67473 -8.7417,-3.70918 l -11.7428,-2.79588 c -6.1508,-1.30475 -10.829,-3.60668 -14.0443,-6.91513 -3.2155,-3.30844 -4.8276,-7.42769 -4.8276,-12.36707 0,-6.33731 2.5348,-11.46307 7.6234,-15.37726 5.079,-3.91425 11.8079,-5.87136 20.1955,-5.87136 5.0324,0 9.804,0.79218 14.3335,2.3765 4.5199,1.58434 8.3595,3.82101 11.5376,6.71007 l -4.3337,9.92535 c -6.8033,-5.40533 -13.9794,-8.10802 -21.5281,-8.10802 -4.5666,0 -8.1082,0.86673 -10.6243,2.59084 -2.5162,1.72412 -3.7745,4.11925 -3.7745,7.1947 0,2.42311 0.7923,4.38022 2.3766,5.87133 1.5841,1.49114 4.1006,2.6561 7.5488,3.49486 l 12.0221,2.93567 c 6.7101,1.49111 11.6774,3.83964 14.8927,7.06421 3.2154,3.21526 4.8183,7.39042 4.8183,12.50688 0,6.3373 -2.5442,11.35122 -7.6141,15.02312 -5.079,3.68123 -12.0036,5.5172 -20.764,5.5172 -12.3017,0 -21.9942,-2.98226 -29.0771,-8.94681 z"
     id="path56"
     inkscape:connector-curvature="0"
     style="fill:#434343;stroke-width:0.93195665" />
  <path
     class="i"
     d="m 2232.8887,220.6932 v 35.36777 c 0,4.84617 1.0436,8.27577 3.1499,10.27948 2.0967,2.00371 5.0047,3.0009 8.7417,3.0009 2.4232,0 4.8929,-0.37278 7.4091,-1.11835 v 11.46306 c -3.0756,1.02516 -6.5703,1.53775 -10.4844,1.53775 -7.2693,0 -12.9079,-2.05032 -16.9152,-6.15091 -4.0075,-4.10062 -6.011,-10.06514 -6.011,-17.89358 V 220.6932 h -13.6999 v -10.90389 h 13.6999 v -17.61399 l 14.1192,-4.89277 v 22.50676 h 19.4312 v 10.90389 z"
     id="path58"
     inkscape:connector-curvature="0"
     style="fill:#434343;stroke-width:0.93195665" />
  <path
     class="i"
     d="m 2325.4317,245.29685 h -50.3254 c 0.4659,16.49566 7.9683,24.74346 22.5067,24.74346 8.108,0 15.5172,-2.65607 22.2271,-7.96822 l 4.3335,10.06513 c -3.1684,2.79588 -7.1946,5.01393 -12.0874,6.63554 -4.8929,1.63092 -9.8134,2.44172 -14.7529,2.44172 -11.2767,0 -20.1302,-3.23388 -26.5609,-9.71099 -6.4303,-6.47709 -9.6454,-15.34932 -9.6454,-26.63534 0,-7.17605 1.4166,-13.55994 4.2684,-19.15169 2.8422,-5.59175 6.8218,-9.92535 11.9567,-13.0008 5.1259,-3.07545 10.9505,-4.61319 17.4744,-4.61319 9.5059,0 16.9801,3.07546 22.4414,9.22637 5.4519,6.15093 8.1732,14.67833 8.1732,25.58223 v 2.37646 h -0.01 z m -43.3356,-21.94756 c -3.3552,3.16863 -5.4987,7.68865 -6.4307,13.55997 h 37.3248 c -0.5591,-5.96453 -2.3765,-10.50317 -5.4518,-13.62522 -3.0756,-3.12205 -7.2227,-4.68775 -12.4414,-4.68775 -5.2193,0 -9.6461,1.58434 -13.0009,4.753 z"
     id="path60"
     inkscape:connector-curvature="0"
     style="fill:#434343;stroke-width:0.93195665" />
  <path
     class="i"
     d="m 2445.5145,236.35007 v 43.89517 h -14.119 v -43.19618 c 0,-6.05773 -1.0439,-10.48454 -3.1502,-13.28039 -2.1061,-2.79587 -5.48,-4.19382 -10.1396,-4.19382 -5.4054,0 -9.6737,1.86392 -12.796,5.59176 -3.1219,3.72781 -4.6782,8.80698 -4.6782,15.23749 v 39.84114 h -14.1192 v -43.19618 c 0,-6.05773 -1.0437,-10.48454 -3.1499,-13.28039 -2.1064,-2.79587 -5.4801,-4.19382 -10.1397,-4.19382 -5.4053,0 -9.6924,1.86392 -12.8611,5.59176 -3.1685,3.72781 -4.753,8.80698 -4.753,15.23749 v 39.84114 h -13.9793 v -50.60525 c 0,-7.36245 -0.3728,-13.97935 -1.1184,-19.85068 h 13.1406 l 1.2583,11.74264 c 2.0502,-4.287 4.9859,-7.59544 8.8069,-9.92532 3.8212,-2.32989 8.2945,-3.49483 13.4202,-3.49483 10.904,0 18.0333,4.51999 21.3885,13.55996 2.1432,-4.19381 5.2839,-7.50227 9.4315,-9.92534 4.147,-2.42308 8.8255,-3.63462 14.0444,-3.63462 15.6569,0 23.4851,9.41276 23.4851,28.23827 z"
     id="path62"
     inkscape:connector-curvature="0"
     style="fill:#434343;stroke-width:0.93195665" />
  <path
     class="i"
     d="m 649.74818,365.05033 v 7.82842 h 16.49557 v 10.90388 h -16.49557 v 59.55205 h -14.11922 v -59.55205 h -13.55993 v -10.90388 h 13.55993 v -8.94678 c 0,-7.82846 1.97578,-13.79295 5.94593,-17.89357 3.96083,-4.10063 9.52464,-6.15092 16.70071,-6.15092 3.72777,0 7.1294,0.46597 10.20492,1.39792 v 11.60288 c -2.51633,-0.74556 -4.89284,-1.11837 -7.12952,-1.11837 -7.73522,0 -11.60282,4.4268 -11.60282,13.28042 z"
     id="path64"
     inkscape:connector-curvature="0"
     style="fill:#434343;stroke-width:0.93195665" />
  <path
     class="i"
     d="m 692.1149,439.83983 c -5.21899,-2.98225 -9.25428,-7.22264 -12.09677,-12.72123 -2.84248,-5.49853 -4.26835,-11.92903 -4.26835,-19.29148 0,-7.36245 1.41654,-13.81159 4.26835,-19.36605 2.84249,-5.54515 6.86852,-9.80422 12.09677,-12.78646 5.21899,-2.98225 11.27672,-4.47341 18.17318,-4.47341 6.8965,0 12.81439,1.49116 18.03337,4.47341 5.21889,2.98224 9.24495,7.25063 12.08741,12.78646 2.84249,5.54514 4.26835,12.0036 4.26835,19.36605 0,7.36245 -1.42586,13.79295 -4.26835,19.29148 -2.84246,5.49859 -6.87777,9.73898 -12.08741,12.72123 -5.21898,2.98227 -11.23007,4.47342 -18.03337,4.47342 -6.80328,0 -12.95419,-1.49115 -18.17318,-4.47342 z m 32.9913,-13.14058 c 3.44819,-4.28701 5.17233,-10.5777 5.17233,-18.87213 0,-8.29442 -1.75209,-14.35213 -5.23757,-18.73233 -3.49484,-4.38021 -8.41563,-6.57029 -14.74361,-6.57029 -6.32796,0 -11.41648,2.19008 -14.95786,6.57029 -3.54149,4.3802 -5.31217,10.62431 -5.31217,18.73233 0,8.10803 1.75209,14.58512 5.23758,18.87213 3.49485,4.287 8.45286,6.43049 14.88335,6.43049 6.43049,0 11.50966,-2.14349 14.95795,-6.43049 z"
     id="path66"
     inkscape:connector-curvature="0"
     style="fill:#434343;stroke-width:0.93195665" />
  <path
     class="i"
     d="m 802.96179,372.17977 -0.27958,12.86102 c -2.51626,-0.93198 -5.26552,-1.39796 -8.24775,-1.39796 -6.43052,0 -11.25802,1.93849 -14.46404,5.79678 -3.21524,3.86763 -4.82749,8.74175 -4.82749,14.60376 v 39.28197 H 761.16357 V 392.7201 c 0,-7.36246 -0.37277,-13.97935 -1.11832,-19.85068 h 13.1406 l 1.25808,12.72123 c 1.86398,-4.65979 4.75299,-8.21987 8.66726,-10.68954 3.91417,-2.46972 8.2944,-3.70922 13.14062,-3.70922 2.14343,0 4.38011,0.32619 6.70998,0.97855 v 0 z"
     id="path68"
     inkscape:connector-curvature="0"
     style="fill:#434343;stroke-width:0.93195665" />
  <path
     class="i"
     d="m 854.65274,343.99921 h 14.39867 v 99.53298 h -14.39867 z"
     id="path70"
     inkscape:connector-curvature="0"
     style="fill:#434343;stroke-width:0.93195665" />
  <path
     class="i"
     d="m 953.76625,399.63703 v 43.89516 h -14.11901 v -43.0564 c 0,-6.1509 -1.18358,-10.6243 -3.56015,-13.42018 -2.37651,-2.79587 -6.17881,-4.1938 -11.39781,-4.1938 -5.96453,0 -10.74537,1.86391 -14.33347,5.59175 -3.58802,3.72781 -5.3775,8.71378 -5.3775,14.95791 v 40.12072 h -13.97932 v -50.60524 c 0,-7.36245 -0.37278,-13.97936 -1.11827,-19.8507 h 13.14056 l 1.25819,12.16207 c 2.23666,-4.4734 5.47051,-7.90302 9.71088,-10.2795 4.24046,-2.3765 9.05867,-3.5694 14.46404,-3.5694 16.86842,0 25.30258,9.41277 25.30258,28.23829 h 0.0111 z"
     id="path72"
     inkscape:connector-curvature="0"
     style="fill:#434343;stroke-width:0.93195665" />
  <path
     class="i"
     d="m 969.42321,435.56396 4.19376,-10.20493 c 7.36246,5.59175 15.7967,8.38761 25.30253,8.38761 4.8462,0 8.5276,-0.81078 11.0438,-2.44173 2.5162,-1.63092 3.7745,-3.93284 3.7745,-6.91511 0,-2.51628 -0.8668,-4.49204 -2.5816,-5.94587 -1.7242,-1.44455 -4.641,-2.67472 -8.7419,-3.7092 l -11.74256,-2.79585 c -6.15085,-1.30477 -10.82931,-3.60669 -14.05393,-6.91515 -3.21524,-3.30844 -4.81818,-7.42769 -4.81818,-12.36704 0,-6.33732 2.53498,-11.4631 7.61406,-15.37729 5.0793,-3.91424 11.81732,-5.87133 20.20491,-5.87133 5.0326,0 9.8042,0.79214 14.3335,2.37647 4.5201,1.58435 8.3597,3.82104 11.5376,6.71011 l -4.3335,9.92532 c -6.8034,-5.40533 -13.9795,-8.10802 -21.5282,-8.10802 -4.56668,0 -8.10794,0.86672 -10.62432,2.59084 -2.51634,1.72413 -3.77451,4.11927 -3.77451,7.19472 0,2.42309 0.79232,4.38019 2.3765,5.87131 1.58418,1.49116 4.10065,2.65608 7.5488,3.49483 l 12.02223,2.93568 c 6.7102,1.49114 11.6775,3.83966 14.8926,7.06423 3.2154,3.21525 4.8278,7.39044 4.8278,12.50686 0,6.33731 -2.5444,11.35124 -7.6235,15.02314 -5.0792,3.68122 -12.0038,5.5172 -20.7547,5.5172 -12.30179,0 -21.99419,-2.98226 -29.07713,-8.9468 z"
     id="path74"
     inkscape:connector-curvature="0"
     style="fill:#434343;stroke-width:0.93195665" />
  <path
     class="i"
     d="m 1061.1278,383.98015 v 35.36776 c 0,4.84618 1.0437,8.27577 3.1501,10.27949 2.0969,2.00371 5.0044,3.00091 8.7418,3.00091 2.4228,0 4.8927,-0.37279 7.4089,-1.11834 v 11.46305 c -3.0756,1.02515 -6.5703,1.53774 -10.4845,1.53774 -7.2693,0 -12.9077,-2.05031 -16.9152,-6.15094 -4.0072,-4.10059 -6.011,-10.06512 -6.011,-17.89356 v -36.48611 h -13.6997 v -10.9039 h 13.6997 v -17.61398 l 14.1191,-4.89275 v 22.50673 h 19.4315 v 10.9039 z"
     id="path76"
     inkscape:connector-curvature="0"
     style="fill:#434343;stroke-width:0.93195665" />
  <path
     class="i"
     d="m 1135.358,372.37729 -0.2794,12.86103 c -2.5166,-0.93198 -5.2656,-1.39797 -8.2479,-1.39797 -6.4305,0 -11.2488,1.93847 -14.464,5.7968 -3.2153,3.8676 -4.8182,8.74174 -4.8182,14.60374 v 39.28198 h -13.9793 v -50.60525 c 0,-7.36246 -0.3727,-13.97935 -1.1184,-19.85067 h 13.1407 l 1.258,12.7212 c 1.864,-4.65977 4.7531,-8.21985 8.6671,-10.68954 3.9143,-2.46969 8.2946,-3.70919 13.1407,-3.70919 2.1437,0 4.3802,0.32617 6.7102,0.97857 v 0 z"
     id="path78"
     inkscape:connector-curvature="0"
     style="fill:#434343;stroke-width:0.93195665" />
  <path
     class="i"
     d="m 1207.3518,373.07625 v 70.45594 h -13.6998 v -11.74264 c -2.2367,4.10062 -5.3122,7.25063 -9.2264,9.43138 -3.9142,2.19012 -8.341,3.28049 -13.2804,3.28049 -16.9615,0 -25.4423,-9.41273 -25.4423,-28.23828 v -43.19619 h 13.9793 v 43.0564 c 0,5.77813 1.1836,10.04649 3.5694,12.79577 2.3765,2.74927 5.983,4.11925 10.8292,4.11925 5.7781,0 10.4099,-1.86393 13.9049,-5.59176 3.4948,-3.72782 5.2376,-8.66718 5.2376,-14.81812 v -39.56154 h 14.1285 z"
     id="path80"
     inkscape:connector-curvature="0"
     style="fill:#434343;stroke-width:0.93195665" />
  <path
     class="i"
     d="m 1240.1287,440.03735 c -5.2657,-2.98225 -9.301,-7.1947 -12.0969,-12.65596 -2.7958,-5.45195 -4.1938,-11.80789 -4.1938,-19.07717 0,-7.26925 1.4633,-13.69976 4.4083,-19.2915 2.9357,-5.59172 7.0548,-9.92533 12.3668,-13.00081 5.3125,-3.07545 11.5098,-4.61318 18.5928,-4.61318 4.9393,0 9.6922,0.82013 14.2589,2.44174 4.5665,1.63092 8.2477,3.83968 11.0435,6.63553 l -4.3334,10.20491 c -6.6168,-5.21896 -13.2804,-7.82843 -19.9904,-7.82843 -6.7101,0 -12.1155,2.21807 -15.9367,6.63553 -3.8209,4.4268 -5.7315,10.65228 -5.7315,18.65779 0,8.0055 1.9106,14.19369 5.7315,18.5273 3.8212,4.3336 9.1332,6.50507 15.9367,6.50507 6.8033,0 13.5597,-2.60949 19.9904,-7.82846 l 4.3334,10.20493 c -2.9822,2.79588 -6.7845,4.98599 -11.3976,6.5703 -4.6131,1.58432 -9.4316,2.37648 -14.4641,2.37648 -7.0829,0 -13.2617,-1.49111 -18.5273,-4.47338 h 0.012 z"
     id="path82"
     inkscape:connector-curvature="0"
     style="fill:#434343;stroke-width:0.93195665" />
  <path
     class="i"
     d="m 1316.3907,383.98015 v 35.36776 c 0,4.84618 1.0438,8.27577 3.1499,10.27949 2.0971,2.00371 5.0047,3.00091 8.742,3.00091 2.4231,0 4.8926,-0.37279 7.4089,-1.11834 v 11.46305 c -3.0753,1.02515 -6.5703,1.53774 -10.4846,1.53774 -7.2692,0 -12.9075,-2.05031 -16.915,-6.15094 -4.0074,-4.10059 -6.0111,-10.06512 -6.0111,-17.89356 v -36.48611 h -13.6998 v -10.9039 h 13.6998 v -17.61398 l 14.1192,-4.89275 v 22.50673 h 19.4315 v 10.9039 z"
     id="path84"
     inkscape:connector-curvature="0"
     style="fill:#434343;stroke-width:0.93195665" />
  <path
     class="i"
     d="m 1360.9755,440.03735 c -5.2189,-2.98225 -9.2543,-7.22266 -12.0967,-12.7212 -2.8425,-5.49855 -4.2592,-11.92905 -4.2592,-19.29152 0,-7.36244 1.4167,-13.8116 4.2592,-19.36606 2.8424,-5.54516 6.8684,-9.80419 12.0967,-12.78643 5.219,-2.98227 11.2768,-4.47341 18.1732,-4.47341 6.8963,0 12.8144,1.49114 18.0333,4.47341 5.219,2.98224 9.2451,7.25061 12.0969,12.78643 2.8426,5.54517 4.259,12.00362 4.259,19.36606 0,7.36247 -1.4259,13.79297 -4.259,19.29152 -2.8426,5.49854 -6.8779,9.73895 -12.0969,12.7212 -5.2189,2.98229 -11.2302,4.47341 -18.0333,4.47341 -6.8032,0 -12.9542,-1.49112 -18.1732,-4.47341 z m 32.9912,-13.14058 c 3.4485,-4.287 5.1724,-10.57772 5.1724,-18.87214 0,-8.2944 -1.7519,-14.35212 -5.2376,-18.73233 -3.4949,-4.3802 -8.4154,-6.57029 -14.7528,-6.57029 -6.3374,0 -11.4165,2.19009 -14.9579,6.57029 -3.5416,4.38021 -5.3122,10.62431 -5.3122,18.73233 0,8.10804 1.7521,14.58514 5.2376,18.87214 3.4948,4.28699 8.4621,6.43049 14.8927,6.43049 6.4304,0 11.5098,-2.1435 14.9578,-6.43049 z"
     id="path86"
     inkscape:connector-curvature="0"
     style="fill:#434343;stroke-width:0.93195665" />
  <path
     class="i"
     d="m 1471.8318,372.37729 -0.2797,12.86103 c -2.5161,-0.93198 -5.2655,-1.39797 -8.2477,-1.39797 -6.4306,0 -11.2487,1.93847 -14.4639,5.7968 -3.2152,3.8676 -4.8183,8.74174 -4.8183,14.60374 v 39.28198 h -13.9795 v -50.60525 c 0,-7.36246 -0.3727,-13.97935 -1.1182,-19.85067 h 13.1406 l 1.2582,12.7212 c 1.8639,-4.65977 4.7528,-8.21985 8.6671,-10.68954 3.9142,-2.46969 8.2945,-3.70919 13.1406,-3.70919 2.1435,0 4.3802,0.32617 6.7102,0.97857 v 0 z"
     id="path88"
     inkscape:connector-curvature="0"
     style="fill:#434343;stroke-width:0.93195665" />
  <path
     class="i"
     d="m 1477.4236,435.56396 4.1937,-10.20493 c 7.3623,5.59175 15.7967,8.38761 25.3026,8.38761 4.8462,0 8.5274,-0.81078 11.0436,-2.44173 2.5166,-1.63092 3.7746,-3.93284 3.7746,-6.91511 0,-2.51628 -0.8668,-4.49204 -2.5814,-5.94587 -1.7244,-1.44455 -4.6414,-2.67472 -8.7419,-3.7092 l -11.7427,-2.79585 c -6.1508,-1.30477 -10.8291,-3.60669 -14.0539,-6.91515 -3.2152,-3.30844 -4.8182,-7.42769 -4.8182,-12.36704 0,-6.33732 2.5349,-11.4631 7.614,-15.37729 5.0793,-3.91424 11.8172,-5.87133 20.205,-5.87133 5.0324,0 9.8041,0.79214 14.3334,2.37647 4.5199,1.58435 8.3597,3.82104 11.5377,6.71011 l -4.3336,9.92532 c -6.8033,-5.40533 -13.9793,-8.10802 -21.5282,-8.10802 -4.5666,0 -8.1081,0.86672 -10.6245,2.59084 -2.5162,1.72413 -3.7744,4.11927 -3.7744,7.19472 0,2.42309 0.7921,4.38019 2.3767,5.87131 1.5842,1.49116 4.1007,2.65608 7.5488,3.49483 l 12.0223,2.93568 c 6.71,1.49114 11.6773,3.83966 14.8923,7.06423 3.2155,3.21525 4.8279,7.39044 4.8279,12.50686 0,6.33731 -2.5445,11.35124 -7.6235,15.02314 -5.0791,3.68122 -12.0036,5.5172 -20.7547,5.5172 -12.3019,0 -21.9943,-2.98226 -29.0771,-8.9468 z"
     id="path90"
     inkscape:connector-curvature="0"
     style="fill:#434343;stroke-width:0.93195665" />
  <path
     class="i"
     d="m 1653.2836,373.07625 v 70.45594 h -13.9793 v -12.02222 c -2.0501,4.19381 -5.1069,7.40904 -9.1609,9.64574 -4.0544,2.23667 -8.7884,3.35505 -14.1844,3.35505 -6.2442,0 -11.724,-1.49112 -16.421,-4.47341 -4.7065,-2.98225 -8.3691,-7.1947 -10.9786,-12.65596 -2.6095,-5.45195 -3.9143,-11.80789 -3.9143,-19.07717 0,-7.26925 1.3234,-13.69976 3.9796,-19.2915 2.656,-5.59172 6.3653,-9.92533 11.1087,-13.00081 4.7531,-3.07545 10.1584,-4.61318 16.2162,-4.61318 5.4054,0 10.1117,1.14631 14.119,3.4296 4.0075,2.28329 7.0829,5.51721 9.2264,9.711 v -11.46308 z m -19.2168,53.60617 c 3.4947,-4.42678 5.2375,-10.64296 5.2375,-18.65779 0,-8.01482 -1.7519,-14.35212 -5.2375,-18.73233 -3.4948,-4.3802 -8.462,-6.57029 -14.8926,-6.57029 -6.4306,0 -11.3046,2.26466 -14.8926,6.78464 -3.5882,4.52 -5.3777,10.79208 -5.3777,18.79757 0,8.00551 1.7895,14.07255 5.3777,18.45275 3.588,4.38018 8.6019,6.57029 15.023,6.57029 6.421,0 11.258,-2.20872 14.753,-6.63553 h 0.01 z"
     id="path92"
     inkscape:connector-curvature="0"
     style="fill:#434343;stroke-width:0.93195665" />
  <path
     class="i"
     d="m 1736.7405,399.63703 v 43.89516 h -14.1192 v -43.0564 c 0,-6.1509 -1.193,-10.6243 -3.5693,-13.42018 -2.3765,-2.79587 -6.1697,-4.1938 -11.3885,-4.1938 -5.9646,0 -10.7455,1.86391 -14.3241,5.59175 -3.5883,3.72781 -5.3777,8.71378 -5.3777,14.95791 v 40.12072 h -13.9792 v -50.60524 c 0,-7.36245 -0.3729,-13.97936 -1.1183,-19.8507 h 13.1408 l 1.2578,12.16207 c 2.2368,-4.4734 5.4706,-7.90302 9.7111,-10.2795 4.2403,-2.3765 9.0586,-3.5694 14.4733,-3.5694 16.8684,0 25.3025,9.41277 25.3025,28.23829 h -0.011 z"
     id="path94"
     inkscape:connector-curvature="0"
     style="fill:#434343;stroke-width:0.93195665" />
  <path
     class="i"
     d="m 1821.3155,340.64417 v 102.88802 h -13.9791 v -12.02222 c -2.0503,4.19381 -5.098,7.40904 -9.1613,9.64574 -4.0541,2.23667 -8.7885,3.35505 -14.1844,3.35505 -6.0575,0 -11.4631,-1.53774 -16.2161,-4.61318 -4.753,-3.07547 -8.4621,-7.38113 -11.1087,-12.93559 -2.6561,-5.54514 -3.9889,-11.94766 -3.9889,-19.21694 0,-7.26926 1.3048,-13.65315 3.914,-19.15171 2.6096,-5.49853 6.2629,-9.73896 10.9787,-12.7212 4.7063,-2.98227 10.1769,-4.47341 16.421,-4.47341 5.3122,0 9.9907,1.11836 14.0541,3.35507 4.0539,2.23666 7.1012,5.40534 9.1517,9.50594 v -43.61557 z m -19.2168,86.04756 c 3.4948,-4.42678 5.2377,-10.64295 5.2377,-18.65778 0,-8.0148 -1.7524,-14.23096 -5.2377,-18.66709 -3.4948,-4.4268 -8.4156,-6.63552 -14.7531,-6.63552 -6.337,0 -11.4442,2.19009 -15.023,6.57029 -3.5882,4.3802 -5.3773,10.53112 -5.3773,18.45275 0,7.92163 1.7891,14.28689 5.3773,18.80689 3.5879,4.51998 8.5459,6.7753 14.8927,6.7753 6.3465,0 11.3886,-2.20872 14.8834,-6.63551 v 0 z"
     id="path96"
     inkscape:connector-curvature="0"
     style="fill:#434343;stroke-width:0.93195665" />
  <path
     class="i"
     d="m 1891.9764,441.57508 c -6.3838,-2.05029 -11.9103,-5.12576 -16.5607,-9.22635 l 5.1724,-10.62431 c 4.8461,3.91418 9.8787,6.75668 15.0976,8.52741 5.219,1.77068 11.0903,2.65606 17.6141,2.65606 7.4555,0 13.2335,-1.39792 17.3343,-4.19381 4.1005,-2.79587 6.1509,-6.75669 6.1509,-11.88245 0,-4.28699 -1.9104,-7.5209 -5.7315,-9.711 -3.821,-2.19008 -9.8787,-4.21243 -18.1731,-6.07634 -7.9217,-1.67754 -14.3988,-3.61599 -19.4314,-5.80609 -5.0325,-2.19011 -8.9933,-5.12577 -11.8824,-8.807 -2.889,-3.68122 -4.3337,-8.40626 -4.3337,-14.18439 0,-5.77813 1.5379,-10.87592 4.6132,-15.30272 3.0754,-4.42678 7.4277,-7.87502 13.0754,-10.34472 5.6383,-2.4697 12.134,-3.69986 19.4965,-3.69986 7.3625,0 13.5319,1.07173 19.6457,3.21523 6.1042,2.14352 11.2022,5.17239 15.3027,9.0866 l -5.1724,10.62429 c -4.5665,-3.821 -9.2727,-6.63553 -14.1189,-8.45282 -4.8464,-1.81732 -10.0187,-2.73067 -15.5172,-2.73067 -7.1761,0 -12.8144,1.5191 -16.9151,4.54796 -4.1007,3.02886 -6.151,7.15743 -6.151,12.3764 0,4.47338 1.7895,7.87503 5.3776,10.20492 3.588,2.3299 9.3382,4.4268 17.269,6.2907 8.2944,1.86393 15.0046,3.82103 20.1303,5.87133 5.1259,2.05031 9.2265,4.84618 12.302,8.38762 3.0754,3.54144 4.613,8.10801 4.613,13.69976 0,5.59177 -1.5376,10.81071 -4.613,15.09771 -3.0755,4.287 -7.4837,7.61409 -13.206,9.99057 -5.7315,2.37648 -12.4696,3.56938 -20.1955,3.56938 -7.7258,0 -14.7995,-1.02513 -21.1834,-3.07547 v -0.0279 z"
     id="path98"
     inkscape:connector-curvature="0"
     style="fill:#434343;stroke-width:0.93195665" />
  <path
     class="i"
     d="m 1985.4332,383.98015 v 35.36776 c 0,4.84618 1.0438,8.27577 3.1499,10.27949 2.097,2.00371 5.0046,3.00091 8.7418,3.00091 2.4232,0 4.8929,-0.37279 7.4092,-1.11834 v 11.46305 c -3.0757,1.02515 -6.5705,1.53774 -10.4846,1.53774 -7.2692,0 -12.9077,-2.05031 -16.915,-6.15094 -4.0074,-4.10059 -6.0111,-10.06512 -6.0111,-17.89356 v -36.48611 h -13.6999 v -10.9039 h 13.6999 v -17.61398 l 14.1191,-4.89275 v 22.50673 h 19.4313 v 10.9039 z"
     id="path100"
     inkscape:connector-curvature="0"
     style="fill:#434343;stroke-width:0.93195665" />
  <path
     class="i"
     d="m 2079.0949,373.07625 v 70.45594 h -13.6998 v -11.74264 c -2.2369,4.10062 -5.3122,7.25063 -9.2265,9.43138 -3.9141,2.19012 -8.3408,3.28049 -13.2803,3.28049 -16.9616,0 -25.4424,-9.41273 -25.4424,-28.23828 v -43.19619 h 13.9794 v 43.0564 c 0,5.77813 1.1834,10.04649 3.56,12.79577 2.3765,2.74927 5.9831,4.11925 10.8293,4.11925 5.7782,0 10.4193,-1.86393 13.914,-5.59176 3.4949,-3.72782 5.2378,-8.66718 5.2378,-14.81812 v -39.56154 h 14.1285 z"
     id="path102"
     inkscape:connector-curvature="0"
     style="fill:#434343;stroke-width:0.93195665" />
  <path
     class="i"
     d="m 2164.229,340.64417 v 102.88802 h -13.9794 v -12.02222 c -2.0502,4.19381 -5.0978,7.40904 -9.1609,9.64574 -4.054,2.23667 -8.7885,3.35505 -14.1845,3.35505 -6.0577,0 -11.4631,-1.53774 -16.2159,-4.61318 -4.7533,-3.07547 -8.4624,-7.38113 -11.1091,-12.93559 -2.6561,-5.54514 -3.9886,-11.94766 -3.9886,-19.21694 0,-7.26926 1.3046,-13.65315 3.9141,-19.15171 2.6093,-5.49853 6.2628,-9.73896 10.9786,-12.7212 4.7064,-2.98227 10.1767,-4.47341 16.4209,-4.47341 5.3121,0 9.9907,1.11836 14.0541,3.35507 4.0536,2.23666 7.1013,5.40534 9.1518,9.50594 v -43.61557 z m -19.2171,86.04756 c 3.4951,-4.42678 5.2377,-10.64295 5.2377,-18.65778 0,-8.0148 -1.7521,-14.23096 -5.2377,-18.66709 -3.4945,-4.4268 -8.4152,-6.63552 -14.7526,-6.63552 -6.3373,0 -11.4445,2.19009 -15.0232,6.57029 -3.588,4.3802 -5.3773,10.53112 -5.3773,18.45275 0,7.92163 1.7893,14.28689 5.3773,18.80689 3.5881,4.51998 8.546,6.7753 14.8925,6.7753 6.3469,0 11.3888,-2.20872 14.8833,-6.63551 v 0 z"
     id="path104"
     inkscape:connector-curvature="0"
     style="fill:#434343;stroke-width:0.93195665" />
  <path
     class="i"
     d="m 2245.0296,408.5838 h -50.3256 c 0.466,16.49565 7.9685,24.74346 22.5068,24.74346 8.1081,0 15.517,-2.65605 22.2271,-7.96823 l 4.3336,10.06513 c -3.1686,2.79587 -7.1947,5.01394 -12.0874,6.63555 -4.8928,1.63092 -9.8133,2.44171 -14.7528,2.44171 -11.2766,0 -20.1306,-3.23388 -26.5608,-9.71097 -6.4307,-6.47711 -9.6458,-15.34932 -9.6458,-26.63533 0,-7.17605 1.4166,-13.55998 4.2684,-19.15172 2.8425,-5.59174 6.8219,-9.92532 11.9569,-13.00081 5.1258,-3.07545 10.9505,-4.61317 17.4741,-4.61317 9.5062,0 16.9804,3.07545 22.4418,9.22637 5.4518,6.15095 8.1731,14.67833 8.1731,25.58224 v 2.37647 h -0.01 z m -43.336,-21.94757 c -3.3547,3.16866 -5.4985,7.68866 -6.4303,13.55997 h 37.3247 c -0.5592,-5.96452 -2.3764,-10.50314 -5.4519,-13.62521 -3.0754,-3.12206 -7.2226,-4.68772 -12.4415,-4.68772 -5.2191,0 -9.6457,1.58431 -13.001,4.75296 z"
     id="path106"
     inkscape:connector-curvature="0"
     style="fill:#434343;stroke-width:0.93195665" />
  <path
     class="i"
     d="m 2324.0036,399.63703 v 43.89516 h -14.1189 v -43.0564 c 0,-6.1509 -1.1837,-10.6243 -3.5694,-13.42018 -2.3767,-2.79587 -6.1696,-4.1938 -11.3886,-4.1938 -5.9646,0 -10.7455,1.86391 -14.3337,5.59175 -3.5879,3.72781 -5.3866,8.71378 -5.3866,14.95791 v 40.12072 h -13.9793 v -50.60524 c 0,-7.36245 -0.3729,-13.97936 -1.1183,-19.8507 h 13.1406 l 1.2581,12.16207 c 2.2367,-4.4734 5.4705,-7.90302 9.7202,-10.2795 4.2405,-2.3765 9.0587,-3.5694 14.4642,-3.5694 16.8684,0 25.3026,9.41277 25.3026,28.23829 v 0 z"
     id="path108"
     inkscape:connector-curvature="0"
     style="fill:#434343;stroke-width:0.93195665" />
  <path
     class="i"
     d="m 2362.447,383.98015 v 35.36776 c 0,4.84618 1.0438,8.27577 3.1498,10.27949 2.0973,2.00371 5.0047,3.00091 8.7419,3.00091 2.4231,0 4.8928,-0.37279 7.4092,-1.11834 v 11.46305 c -3.0757,1.02515 -6.5705,1.53774 -10.4848,1.53774 -7.269,0 -12.9074,-2.05031 -16.9147,-6.15094 -4.0075,-4.10059 -6.0111,-10.06512 -6.0111,-17.89356 v -36.48611 h -13.6998 v -10.9039 h 13.6998 v -17.61398 l 14.119,-4.89275 v 22.50673 h 19.4312 v 10.9039 z"
     id="path110"
     inkscape:connector-curvature="0"
     style="fill:#434343;stroke-width:0.93195665" />
  <path
     class="i"
     d="m 2390.4056,435.56396 4.194,-10.20493 c 7.3623,5.59175 15.7966,8.38761 25.3025,8.38761 4.8464,0 8.5274,-0.81078 11.0438,-2.44173 2.5161,-1.63092 3.7743,-3.93284 3.7743,-6.91511 0,-2.51628 -0.8667,-4.49204 -2.5815,-5.94587 -1.7241,-1.44455 -4.6411,-2.67472 -8.7418,-3.7092 l -11.7427,-2.79585 c -6.1509,-1.30477 -10.8293,-3.60669 -14.0444,-6.91515 -3.2153,-3.30844 -4.8278,-7.42769 -4.8278,-12.36704 0,-6.33732 2.5351,-11.4631 7.6235,-15.37729 5.0792,-3.91424 11.808,-5.87133 20.1956,-5.87133 5.0325,0 9.8042,0.79214 14.3335,2.37647 4.52,1.58435 8.3597,3.82104 11.5374,6.71011 l -4.3336,9.92532 c -6.8032,-5.40533 -13.9792,-8.10802 -21.5282,-8.10802 -4.5663,0 -8.1079,0.86672 -10.6242,2.59084 -2.5163,1.72413 -3.7742,4.11927 -3.7742,7.19472 0,2.42309 0.7919,4.38019 2.3765,5.87131 1.5842,1.49116 4.1004,2.65608 7.5488,3.49483 l 12.0221,2.93568 c 6.7099,1.49114 11.6775,3.83966 14.8926,7.06423 3.2155,3.21525 4.8184,7.39044 4.8184,12.50686 0,6.33731 -2.5443,11.35124 -7.6141,15.02314 -5.0793,3.68122 -12.0039,5.5172 -20.764,5.5172 -12.3018,0 -21.9942,-2.98226 -29.0771,-8.9468 v 0 z"
     id="path112"
     inkscape:connector-curvature="0"
     style="fill:#434343;stroke-width:0.93195665" />
  <path
     class="i"
     d="m 622.57414,81.498274 h 35.9582 V 279.99628 h -35.9582 z"
     id="path114"
     inkscape:connector-curvature="0"
     style="fill:#434343;stroke-width:1.21316469" />
  <path
     class="i"
     d="m 725.85085,276.36891 c -13.28415,-4.08836 -24.57873,-9.9358 -33.87156,-17.56662 l 12.26509,-26.20437 c 9.65678,7.25474 19.7503,12.59267 30.2442,16.02593 10.49388,3.44539 21.97041,5.15594 34.42961,5.15594 13.75729,0 24.39675,-2.41421 31.91834,-7.2426 7.52164,-4.82837 11.29459,-11.60996 11.29459,-20.3569 0,-7.43672 -3.48178,-13.15071 -10.45747,-17.14201 -6.97573,-3.99132 -18.45226,-7.76426 -34.42964,-11.29456 -24.90627,-5.38646 -43.03094,-12.36216 -54.3619,-20.90284 -11.3431,-8.54066 -17.00856,-20.99988 -17.00856,-37.35333 0,-11.70703 3.15421,-22.116 9.4748,-31.22686 6.32059,-9.098719 15.28589,-16.256398 26.90799,-21.460879 11.60999,-5.204472 25.03975,-7.800646 40.28922,-7.800646 13.93923,0 27.18701,2.086638 39.73112,6.272064 12.54412,4.18541 22.80752,9.996459 30.80225,17.421011 l -11.98606,26.20437 c -17.66367,-14.12123 -37.17136,-21.18185 -58.54731,-21.18185 -12.82316,0 -22.9531,2.6447 -30.38978,7.94623 -7.43672,5.30155 -11.14898,12.49559 -11.14898,21.60646 0,7.80066 3.29979,13.7573 9.89941,17.84565 6.5996,4.08838 17.88205,7.89771 33.87155,11.42802 16.53544,3.9064 30.0137,8.12821 40.42266,12.6897 10.40896,4.5615 18.4037,10.40894 23.97213,17.56662 5.58053,7.15769 8.35872,16.12297 8.35872,26.90801 0,11.90113 -3.16633,22.26156 -9.47483,31.08128 -6.32058,8.83183 -15.43146,15.66194 -27.32046,20.49034 -11.90114,4.8284 -25.92535,7.25473 -42.09682,7.25473 -15.23737,0 -29.50417,-2.05023 -42.78831,-6.13861 z"
     id="path116"
     inkscape:connector-curvature="0"
     style="fill:#434343;stroke-width:1.21316469" />
  <path
     class="i"
     d="m 881.00253,81.498274 h 35.95806 V 279.99628 h -35.95806 z"
     id="path118"
     inkscape:connector-curvature="0"
     style="fill:#434343;stroke-width:1.21316469" />
  <path
     class="i"
     d="m 984.2913,276.36891 c -13.28414,-4.08836 -24.57872,-9.9358 -33.87158,-17.56662 l 12.2652,-26.20437 c 9.65672,7.25474 19.75024,12.59267 30.24423,16.02593 10.49375,3.44539 21.97015,5.15594 34.42945,5.15594 13.7573,0 24.3968,-2.41421 31.9185,-7.2426 7.5214,-4.82837 11.2944,-11.60996 11.2944,-20.3569 0,-7.43672 -3.4817,-13.15071 -10.4575,-17.14201 -6.9755,-3.99132 -18.452,-7.76426 -34.4295,-11.29456 -24.9062,-5.38646 -43.03096,-12.36216 -54.3619,-20.90284 -11.34321,-8.54066 -17.00857,-20.99988 -17.00857,-37.35333 0,-11.70703 3.15426,-22.116 9.47478,-31.22686 6.32065,-9.098719 15.28596,-16.256398 26.90797,-21.460879 11.61002,-5.204472 25.03962,-7.800646 40.28932,-7.800646 13.9392,0 27.1869,2.086638 39.731,6.272064 12.544,4.18541 22.8075,9.996459 30.8021,17.421011 l -11.9861,26.20437 c -17.6635,-14.12122 -37.1711,-21.18185 -58.547,-21.18185 -12.8231,0 -22.9533,2.6447 -30.3899,7.94623 -7.43668,5.30155 -11.14889,12.49559 -11.14889,21.60646 0,7.80066 3.29974,13.7573 9.89942,17.84565 6.59967,4.08838 17.88197,7.89771 33.87167,11.42802 16.5354,3.9064 30.0137,8.12821 40.4224,12.6897 10.4091,4.5615 18.4037,10.40894 23.9722,17.56662 5.5806,7.15769 8.3585,16.12297 8.3585,26.90801 0,11.90113 -3.1661,22.26156 -9.4747,31.08128 -6.3204,8.83183 -15.4313,15.66194 -27.3206,20.49034 -11.901,4.8284 -25.925,7.25473 -42.0965,7.25473 -15.2375,0 -29.50415,-2.05023 -42.7884,-6.13861 z"
     id="path120"
     inkscape:connector-curvature="0"
     style="fill:#434343;stroke-width:1.21316469" />
</svg>
